<svg xmlns="http://www.w3.org/2000/svg"  viewBox="0 0 64 64" width="64px" height="64px"><radialGradient id="K23eivvhMoO~C2oTZ45Xya" cx="32" cy="31.5" r="30.775" gradientUnits="userSpaceOnUse" spreadMethod="reflect"><stop offset="0" stop-color="#efdcb1"/><stop offset="0" stop-color="#f2e0bb"/><stop offset=".011" stop-color="#f2e0bc"/><stop offset=".362" stop-color="#f9edd2"/><stop offset=".699" stop-color="#fef4df"/><stop offset="1" stop-color="#fff7e4"/></radialGradient><path fill="url(#K23eivvhMoO~C2oTZ45Xya)" d="M57,47c0,1.66-1.34,3-3,3h-0.5c-1.38,0-2.5,1.12-2.5,2.5s1.12,2.5,2.5,2.5H59 c1.66,0,3,1.34,3,3c0,1.66-1.34,3-3,3H19c-1.66,0-3-1.34-3-3c0-1.66,1.34-3,3-3h5.5c1.38,0,2.5-1.12,2.5-2.5S25.88,50,24.5,50H3 c-1.66,0-3-1.34-3-3c0-1.66,1.34-3,3-3h0.5C4.88,44,6,42.88,6,41.5S4.88,39,3.5,39h-1C1.12,39,0,37.88,0,36.5S1.12,34,2.5,34h15 c0.69,0,1.32-0.28,1.77-0.73C19.72,32.82,20,32.19,20,31.5c0-1.38-1.12-2.5-2.5-2.5H13v-4h13v-7.19C25.69,17.93,25.35,18,25,18H6 c-1.65,0-3-1.35-3-3c0-1.65,1.35-3,3-3h6.5c1.38,0,2.5-1.12,2.5-2.5c0-0.69-0.28-1.32-0.73-1.77C13.82,7.28,13.19,7,12.5,7h-3 C7.9,7,6.64,5.48,7.09,3.82C7.39,2.72,8.45,2,9.59,2H51.5c1.6,0,2.86,1.52,2.41,3.18C53.61,6.28,52.55,7,51.41,7H45.5 C44.67,7,44,7.67,44,8.5c0,0.83,0.67,1.5,1.5,1.5l12.781,0.008c1.45,0,2.79,0.97,3.07,2.4c0.38,1.91-1.09,3.6-2.94,3.6H57 c-1.1,0-2,0.9-2,2c0,1.1,0.9,2,2,2h4.501c1.59,0,2.85,1.52,2.41,3.18c-0.3,1.1-1.36,1.82-2.5,1.82L50,25c-1.1,0-2,0.9-2,2 c0,1.1,0.9,2,2,2h0.5c1.6,0,2.86,2.52,2.41,4.18c-0.3,1.1-1.36,1.82-2.5,1.82H47.5c-0.83,0-1.5,0.67-1.5,1.5c0,0.83-1.83,1.5-1,1.5 c1.6,0,2.86,1.52,2.41,3.18c-0.3,1.1-0.382,1.82-1.506,1.82H41.4l3.594,1H54C55.66,44,57,45.34,57,47z"/><linearGradient id="K23eivvhMoO~C2oTZ45Xyb" x1="41" x2="41" y1="10" y2="29" gradientUnits="userSpaceOnUse" spreadMethod="reflect"><stop offset="0" stop-color="#a4a4a4"/><stop offset=".63" stop-color="#7f7f7f"/><stop offset="1" stop-color="#6f6f6f"/><stop offset="1" stop-color="#6f6f6f"/></linearGradient><path fill="url(#K23eivvhMoO~C2oTZ45Xyb)" d="M41,29L41,29c3.85,0,7-3.15,7-7v-5c0-3.85-3.15-7-7-7h0c-3.85,0-7,3.15-7,7v5 C34,25.85,37.15,29,41,29z"/><linearGradient id="K23eivvhMoO~C2oTZ45Xyc" x1="23" x2="23" y1="10" y2="29" gradientUnits="userSpaceOnUse" spreadMethod="reflect"><stop offset="0" stop-color="#a4a4a4"/><stop offset=".63" stop-color="#7f7f7f"/><stop offset="1" stop-color="#6f6f6f"/><stop offset="1" stop-color="#6f6f6f"/></linearGradient><path fill="url(#K23eivvhMoO~C2oTZ45Xyc)" d="M23,29L23,29c3.85,0,7-3.15,7-7v-5c0-3.85-3.15-7-7-7h0c-3.85,0-7,3.15-7,7v5 C16,25.85,19.15,29,23,29z"/><linearGradient id="K23eivvhMoO~C2oTZ45Xyd" x1="3.657" x2="60.343" y1="27" y2="27" gradientUnits="userSpaceOnUse" spreadMethod="reflect"><stop offset="0" stop-color="#a4a4a4"/><stop offset=".63" stop-color="#7f7f7f"/><stop offset="1" stop-color="#6f6f6f"/><stop offset="1" stop-color="#6f6f6f"/></linearGradient><path fill="url(#K23eivvhMoO~C2oTZ45Xyd)" d="M56.023,23.215C54.816,19.509,51.362,17,47.464,17H32H16.536 c-3.897,0-7.352,2.509-8.558,6.215L3.657,36.49L32,37l28.343-0.51L56.023,23.215z"/><linearGradient id="K23eivvhMoO~C2oTZ45Xye" x1="-387.387" x2="-386.387" y1="-673.689" y2="-673.689" gradientTransform="matrix(56.6855 0 0 -56.6855 21962.906 -38161.688)" gradientUnits="userSpaceOnUse" spreadMethod="reflect"><stop offset="0" stop-color="#b2b2b2"/><stop offset=".594" stop-color="#949494"/><stop offset="1" stop-color="#848484"/><stop offset="1" stop-color="#848484"/></linearGradient><path fill="url(#K23eivvhMoO~C2oTZ45Xye)" d="M19.5,17h-2.965c-3.897,0-7.352,2.509-8.558,6.215L3.657,36.49l1.578,0.028L9,32h6.5 c1.381,0,2.5-1.119,2.5-2.5c0-1.381-1.119-2.5-2.5-2.5h-1c-1.381,0-2.5-1.119-2.5-2.5c0-1.381,1.119-2.5,2.5-2.5h5 c1.381,0,2.5-1.119,2.5-2.5C22,18.119,20.881,17,19.5,17"/><linearGradient id="K23eivvhMoO~C2oTZ45Xyf" x1="-387.387" x2="-386.387" y1="-673.676" y2="-673.676" gradientTransform="matrix(56.6855 0 0 -56.6855 21962.906 -38161.688)" gradientUnits="userSpaceOnUse" spreadMethod="reflect"><stop offset="0" stop-color="#b2b2b2"/><stop offset=".594" stop-color="#949494"/><stop offset="1" stop-color="#848484"/><stop offset="1" stop-color="#848484"/></linearGradient><path fill="url(#K23eivvhMoO~C2oTZ45Xyf)" d="M27,24c-1.105,0-2,0.896-2,2c0,1.105,0.895,2,2,2c1.104,0,2-0.895,2-2 C29,24.896,28.104,24,27,24"/><linearGradient id="K23eivvhMoO~C2oTZ45Xyg" x1="32" x2="32" y1="43" y2="33" gradientUnits="userSpaceOnUse" spreadMethod="reflect"><stop offset="0" stop-color="#ffc050"/><stop offset=".004" stop-color="#ffc050"/><stop offset=".641" stop-color="#ffbe75"/><stop offset="1" stop-color="#ffbd85"/><stop offset="1" stop-color="#ffbd85"/></linearGradient><path fill="url(#K23eivvhMoO~C2oTZ45Xyg)" d="M32 33A5 5 0 1 0 32 43A5 5 0 1 0 32 33Z"/><linearGradient id="K23eivvhMoO~C2oTZ45Xyh" x1="15.5" x2="15.5" y1="28" y2="53" gradientUnits="userSpaceOnUse" spreadMethod="reflect"><stop offset="0" stop-color="#b2b2b2"/><stop offset=".594" stop-color="#949494"/><stop offset="1" stop-color="#848484"/><stop offset="1" stop-color="#848484"/></linearGradient><path fill="url(#K23eivvhMoO~C2oTZ45Xyh)" d="M15.5 28A12.5 12.5 0 1 0 15.5 53A12.5 12.5 0 1 0 15.5 28Z"/><linearGradient id="K23eivvhMoO~C2oTZ45Xyi" x1="48.5" x2="48.5" y1="28" y2="53" gradientUnits="userSpaceOnUse" spreadMethod="reflect"><stop offset="0" stop-color="#b2b2b2"/><stop offset=".594" stop-color="#949494"/><stop offset="1" stop-color="#848484"/><stop offset="1" stop-color="#848484"/></linearGradient><path fill="url(#K23eivvhMoO~C2oTZ45Xyi)" d="M48.5 28A12.5 12.5 0 1 0 48.5 53A12.5 12.5 0 1 0 48.5 28Z"/><linearGradient id="K23eivvhMoO~C2oTZ45Xyj" x1="15.5" x2="15.5" y1="37.75" y2="52.75" gradientUnits="userSpaceOnUse" spreadMethod="reflect"><stop offset="0" stop-color="#def9ff"/><stop offset=".282" stop-color="#cff6ff"/><stop offset=".823" stop-color="#a7efff"/><stop offset="1" stop-color="#99ecff"/></linearGradient><path fill="url(#K23eivvhMoO~C2oTZ45Xyj)" d="M15.5 33A7.5 7.5 0 1 0 15.5 48A7.5 7.5 0 1 0 15.5 33Z"/><g><linearGradient id="K23eivvhMoO~C2oTZ45Xyk" x1="48.5" x2="48.5" y1="37.833" y2="52.833" gradientUnits="userSpaceOnUse" spreadMethod="reflect"><stop offset="0" stop-color="#def9ff"/><stop offset=".282" stop-color="#cff6ff"/><stop offset=".823" stop-color="#a7efff"/><stop offset="1" stop-color="#99ecff"/></linearGradient><path fill="url(#K23eivvhMoO~C2oTZ45Xyk)" d="M48.5 33A7.5 7.5 0 1 0 48.5 48A7.5 7.5 0 1 0 48.5 33Z"/></g></svg>